<svg width="64" height="64" viewBox="0 0 64 64" fill="none" xmlns="http://www.w3.org/2000/svg">
<path d="M21.3335 58.6667H42.6669C53.3869 58.6667 55.3069 54.3733 55.8669 49.1467L57.8669 27.8133C58.5869 21.3067 56.7202 16 45.3335 16H18.6669C7.28019 16 5.41352 21.3067 6.13352 27.8133L8.13352 49.1467C8.69352 54.3733 10.6135 58.6667 21.3335 58.6667Z" stroke="#FF7272" stroke-width="4" stroke-miterlimit="10" stroke-linecap="round" stroke-linejoin="round"/>
<path d="M21.334 16V13.8666C21.334 9.14665 21.334 5.33331 29.8673 5.33331H34.134C42.6673 5.33331 42.6673 9.14665 42.6673 13.8666V16" stroke="#FF7272" stroke-width="4" stroke-miterlimit="10" stroke-linecap="round" stroke-linejoin="round"/>
<path d="M37.3327 34.6667V37.3333C37.3327 37.36 37.3327 37.36 37.3327 37.3867C37.3327 40.2933 37.306 42.6667 31.9993 42.6667C26.7193 42.6667 26.666 40.32 26.666 37.4133V34.6667C26.666 32 26.666 32 29.3327 32H34.666C37.3327 32 37.3327 32 37.3327 34.6667Z" stroke="#FF7272" stroke-width="4" stroke-miterlimit="10" stroke-linecap="round" stroke-linejoin="round"/>
<path d="M57.734 29.3333C51.574 33.8133 44.534 36.48 37.334 37.3866" stroke="#FF7272" stroke-width="4" stroke-miterlimit="10" stroke-linecap="round" stroke-linejoin="round"/>
<path d="M6.98633 30.0533C12.9863 34.16 19.7597 36.64 26.6663 37.4133" stroke="#FF7272" stroke-width="4" stroke-miterlimit="10" stroke-linecap="round" stroke-linejoin="round"/>
</svg>
