<svg width="32" height="32" viewBox="0 0 32 32" fill="none" xmlns="http://www.w3.org/2000/svg">
<path d="M4 29.3333H28" stroke="#1E2739" stroke-width="1.5" stroke-linecap="round" stroke-linejoin="round"/>
<path d="M7.46663 11.1733H5.33333C4.6 11.1733 4 11.7733 4 12.5067V24C4 24.7333 4.6 25.3333 5.33333 25.3333H7.46663C8.19997 25.3333 8.79997 24.7333 8.79997 24V12.5067C8.79997 11.7733 8.19997 11.1733 7.46663 11.1733Z" stroke="#1E2739" stroke-width="1.5" stroke-linecap="round" stroke-linejoin="round"/>
<path d="M17.0662 6.92004H14.9329C14.1996 6.92004 13.5996 7.52004 13.5996 8.25338V24C13.5996 24.7334 14.1996 25.3334 14.9329 25.3334H17.0662C17.7996 25.3334 18.3996 24.7334 18.3996 24V8.25338C18.3996 7.52004 17.7996 6.92004 17.0662 6.92004Z" stroke="#1E2739" stroke-width="1.5" stroke-linecap="round" stroke-linejoin="round"/>
<path d="M26.6659 2.66669H24.5326C23.7992 2.66669 23.1992 3.26669 23.1992 4.00002V24C23.1992 24.7334 23.7992 25.3334 24.5326 25.3334H26.6659C27.3992 25.3334 27.9992 24.7334 27.9992 24V4.00002C27.9992 3.26669 27.3992 2.66669 26.6659 2.66669Z" stroke="#1E2739" stroke-width="1.5" stroke-linecap="round" stroke-linejoin="round"/>
</svg>
