<svg width="32" height="32" viewBox="0 0 32 32" fill="none" xmlns="http://www.w3.org/2000/svg">
<path d="M22.6274 10.9872C22.5842 11.1592 22.5069 11.3209 22.4001 11.4627L15.7258 20.7772C15.6131 20.9342 15.4674 21.0649 15.2989 21.1602C15.1304 21.2554 14.9431 21.313 14.75 21.3289C14.557 21.3447 14.3628 21.3185 14.1809 21.2521C13.999 21.1856 13.8338 21.0805 13.6968 20.944L9.69225 16.9521C9.45646 16.6998 9.32809 16.3662 9.33419 16.0215C9.34029 15.6767 9.48039 15.3478 9.72496 15.104C9.96953 14.8602 10.2995 14.7206 10.6453 14.7145C10.9911 14.7084 11.3258 14.8364 11.5788 15.0714L14.4693 17.9527L20.2287 9.91564C20.3288 9.769 20.4572 9.64378 20.6065 9.54733C20.7558 9.45089 20.923 9.38517 21.0981 9.35404C21.2733 9.32291 21.4529 9.32699 21.6264 9.36604C21.8 9.4051 21.9639 9.47834 22.1087 9.58147C22.2534 9.68459 22.376 9.81552 22.4693 9.96655C22.5625 10.1176 22.6245 10.2857 22.6517 10.4609C22.6788 10.6362 22.6706 10.8151 22.6274 10.9872Z" fill="white"/>
<path fill-rule="evenodd" clip-rule="evenodd" d="M11.1367 5.06534C11.6993 4.41631 12.395 3.89594 13.1765 3.53958C13.958 3.18321 14.8071 2.99919 15.666 3C17.4754 3 19.0967 3.8 20.1954 5.06534C21.0523 5.00415 21.9123 5.12811 22.7171 5.42881C23.5219 5.72951 24.2525 6.19989 24.8594 6.808C25.4672 7.41475 25.9375 8.14517 26.2381 8.94968C26.5388 9.75419 26.6629 10.614 26.602 11.4707C27.2508 12.0334 27.7709 12.7291 28.1271 13.5107C28.4832 14.2922 28.667 15.1412 28.666 16C28.6668 16.8589 28.4828 17.708 28.1264 18.4895C27.7701 19.271 27.2497 19.9667 26.6007 20.5293C26.6616 21.386 26.5375 22.2458 26.2368 23.0503C25.9361 23.8548 25.4659 24.5853 24.858 25.192C24.2513 25.7999 23.5209 26.2701 22.7163 26.5708C21.9118 26.8715 21.0521 26.9956 20.1954 26.9347C19.6327 27.5837 18.9371 28.1041 18.1555 28.4604C17.374 28.8168 16.525 29.0008 15.666 29C14.8071 29.0008 13.958 28.8168 13.1765 28.4604C12.395 28.1041 11.6993 27.5837 11.1367 26.9347C10.2799 26.996 9.41986 26.8723 8.61509 26.5718C7.81033 26.2713 7.07965 25.8012 6.47269 25.1933C5.86464 24.5864 5.39431 23.8558 5.09362 23.051C4.79293 22.2463 4.66892 21.3863 4.73002 20.5293C4.08123 19.9666 3.56112 19.2709 3.20499 18.4893C2.84885 17.7078 2.66504 16.8588 2.66602 16C2.66602 14.1907 3.46602 12.5693 4.73135 11.4707C4.67036 10.614 4.79442 9.75415 5.09511 8.94963C5.3958 8.14511 5.86608 7.4147 6.47402 6.808C7.08072 6.20006 7.81112 5.72979 8.61565 5.4291C9.42017 5.12841 10.28 5.00434 11.1367 5.06534ZM20.4794 13.5813C20.5594 13.4747 20.6172 13.3532 20.6496 13.2239C20.682 13.0946 20.6882 12.9602 20.6678 12.8285C20.6475 12.6968 20.601 12.5704 20.5312 12.4569C20.4613 12.3434 20.3695 12.245 20.261 12.1675C20.1526 12.09 20.0298 12.035 19.8998 12.0056C19.7698 11.9763 19.6352 11.9732 19.504 11.9966C19.3728 12.02 19.2476 12.0694 19.1357 12.1419C19.0239 12.2144 18.9276 12.3085 18.8527 12.4187L14.538 18.4587L12.3727 16.2933C12.1831 16.1167 11.9324 16.0205 11.6733 16.0251C11.4143 16.0297 11.1671 16.1346 10.9839 16.3178C10.8006 16.5011 10.6957 16.7482 10.6911 17.0073C10.6865 17.2664 10.7827 17.5171 10.9594 17.7067L13.9594 20.7067C14.062 20.8092 14.1858 20.8882 14.322 20.9382C14.4583 20.9881 14.6037 21.0078 14.7484 20.9959C14.893 20.984 15.0333 20.9407 15.1595 20.8691C15.2858 20.7975 15.3949 20.6993 15.4794 20.5813L20.4794 13.5813Z" fill="#65BCEC"/>
</svg>
