<svg width="32" height="32" viewBox="0 0 32 32" fill="none" xmlns="http://www.w3.org/2000/svg">
<path d="M11.5625 19.1065C11.5625 20.8265 12.8825 22.2131 14.5225 22.2131H17.8692C19.2958 22.2131 20.4558 20.9998 20.4558 19.5065C20.4558 17.8798 19.7492 17.3065 18.6958 16.9331L13.3225 15.0665C12.2692 14.6931 11.5625 14.1198 11.5625 12.4931C11.5625 10.9998 12.7225 9.78647 14.1492 9.78647H17.4958C19.1358 9.78647 20.4558 11.1731 20.4558 12.8931" stroke="#1E2739" stroke-width="1.5" stroke-linecap="round" stroke-linejoin="round"/>
<path d="M16 8V24" stroke="#1E2739" stroke-width="1.5" stroke-linecap="round" stroke-linejoin="round"/>
<path d="M15.9993 29.3333C23.3631 29.3333 29.3327 23.3638 29.3327 16C29.3327 8.63619 23.3631 2.66666 15.9993 2.66666C8.63555 2.66666 2.66602 8.63619 2.66602 16C2.66602 23.3638 8.63555 29.3333 15.9993 29.3333Z" stroke="#1E2739" stroke-width="1.5" stroke-linecap="round" stroke-linejoin="round"/>
</svg>
