<svg width="44" height="38" viewBox="0 0 44 38" fill="none" xmlns="http://www.w3.org/2000/svg">
<path d="M43.0664 29.8652C43.0664 30.9793 42.9393 32.0603 42.6939 33.098C42.6965 33.1031 42.6965 33.1056 42.6939 33.1107C42.6545 33.2686 42.6151 33.4227 42.5731 33.5805C42.2934 34.6055 41.8103 35.577 41.0564 36.3257C39.7431 37.6307 37.812 38.3043 35.7422 37.8663C33.136 37.3137 31.2582 34.9416 31.2379 32.2691C31.2379 32.0921 31.2455 31.9177 31.2595 31.7458C31.2595 31.7433 31.2595 31.7433 31.2595 31.7433C31.2747 31.6248 31.2887 31.5077 31.3014 31.3893C31.3014 31.374 31.3014 31.3651 31.3065 31.3524C31.3485 30.8876 31.3752 30.4204 31.3752 29.9467C31.3752 26.2085 29.922 22.8178 27.5535 20.2968C27.3374 20.0676 27.1162 19.8473 26.8861 19.6334C26.2326 18.8988 25.5855 18.1705 24.932 17.4384C24.7362 17.1506 24.5519 16.8578 24.3777 16.556C23.3416 14.8015 22.6818 12.805 22.4974 10.6762V10.6736C22.458 10.2662 22.4415 9.85236 22.4415 9.43474C22.4415 8.81722 22.4809 8.20606 22.5597 7.61018C22.5991 7.32498 22.6462 7.03467 22.6995 6.75201C22.8737 5.84037 23.1369 4.95292 23.4802 4.11258C23.7179 3.52307 23.995 2.96029 24.3142 2.41152C25.3567 0.951113 27.0653 0 28.9978 0C32.1761 0 34.7582 2.58341 34.7582 5.76907C34.7582 6.13958 34.7213 6.50373 34.6552 6.8526C34.6501 6.88188 34.6476 6.90608 34.64 6.93154C34.5879 7.19001 34.5523 7.44466 34.5154 7.71077C34.4366 8.30537 34.3971 8.91526 34.3971 9.53405C34.3971 13.1794 35.7842 16.5025 38.0523 19.007C38.2023 19.1547 38.3447 19.3075 38.4896 19.4615C38.4972 19.4717 38.5087 19.4806 38.5188 19.4934C38.5188 19.4959 38.5188 19.4959 38.5188 19.4959C38.6638 19.6436 38.8189 19.7888 38.9702 19.9288C39.0172 19.9759 39.063 20.0218 39.1049 20.0689C39.8906 20.8723 40.5708 21.7699 41.1365 22.7401C42.3646 24.8308 43.0664 27.2653 43.0664 29.8652Z" fill="#FF7272"/>
<path d="M28.231 29.9506C28.231 31.122 28.0886 32.2565 27.8178 33.3451C27.739 33.6634 27.65 33.9766 27.5508 34.2873C26.7245 36.4607 24.6242 38.0001 22.168 38.0001C19.933 38.0001 17.998 36.7281 17.0432 34.8679C16.5398 33.8849 16.3809 32.7619 16.4902 31.6631C16.5118 31.4441 16.5283 31.2226 16.5398 30.9998C16.5538 30.7502 16.5614 30.4968 16.5614 30.2435C16.5614 26.4989 15.1032 23.1006 12.7296 20.5795C12.3698 20.1938 11.9884 19.8321 11.5879 19.4935C11.3413 19.2579 11.0959 19.0236 10.8492 18.7881C10.2899 18.1426 9.78641 17.4461 9.35542 16.7063C8.10824 14.6042 7.3912 12.1507 7.3912 9.53415C7.3912 8.91663 7.43062 8.30674 7.50944 7.70959C7.54504 7.44603 7.58445 7.18884 7.63403 6.93164C7.64166 6.90618 7.6442 6.88198 7.64802 6.8527C7.83363 5.89904 8.11078 4.97848 8.47439 4.10377C8.4782 4.09613 8.4782 4.08976 8.48201 4.08594C8.72484 3.51171 8.99945 2.95784 9.3122 2.42563C10.356 0.976677 12.0608 0.0332031 13.9818 0.0332031C17.1653 0.0332031 19.7423 2.61407 19.7423 5.79845C19.7423 6.09894 19.7207 6.39051 19.6749 6.67699C19.6749 6.68718 19.6711 6.70246 19.6673 6.71264C19.6571 6.75848 19.6495 6.80559 19.6393 6.85143C19.6355 6.87944 19.6317 6.9049 19.6253 6.93037C19.6177 6.9762 19.6075 7.01949 19.5999 7.0666C19.5605 7.27669 19.5287 7.49187 19.4994 7.70959C19.4206 8.30547 19.3812 8.91663 19.3812 9.53415C19.3812 13.1795 20.7682 16.5026 23.035 19.0084C23.0363 19.0096 23.0363 19.0096 23.0376 19.0109C23.1851 19.1573 23.3275 19.3076 23.4737 19.4616C23.4813 19.4718 23.4915 19.4833 23.5016 19.4935C23.5016 19.4973 23.5016 19.4973 23.5016 19.4973C23.6478 19.6437 23.8017 19.7901 23.9542 19.9289C23.9936 19.9607 24.033 19.9964 24.0725 20.032C24.4437 20.3682 25.0082 20.959 25.3146 21.3549C25.6616 21.807 25.982 22.2806 26.2719 22.7733C27.5178 24.8742 28.231 27.3265 28.231 29.9506Z" fill="#FF7272"/>
<path d="M12.1947 25.4841C12.1947 25.9119 12.1375 26.3295 12.0307 26.7267L11.8095 27.3723L9.35325 34.491L9.21721 34.8908C8.51544 36.658 6.79023 37.9071 4.77642 37.9071C2.13839 37.9071 0 35.7655 0 33.1235C0 32.6919 0.0572104 32.2743 0.164003 31.8745L0.373774 31.2646L0.377588 31.2544L2.84017 24.114L2.97621 23.7219C3.67799 21.9546 5.40065 20.7056 7.417 20.7056C10.055 20.7043 12.1947 22.8433 12.1947 25.4841Z" fill="#FF7272"/>
</svg>
