<svg width="54" height="47" viewBox="0 0 54 47" fill="none" xmlns="http://www.w3.org/2000/svg">
<path d="M53.2664 36.9385C53.2664 38.3165 53.1091 39.6535 52.8057 40.937C52.8088 40.9433 52.8088 40.9464 52.8057 40.9527C52.7569 41.148 52.7082 41.3385 52.6563 41.5338C52.3103 42.8015 51.7128 44.0031 50.7803 44.9291C49.156 46.5433 46.7675 47.3763 44.2075 46.8346C40.984 46.1511 38.6615 43.2173 38.6363 39.9118C38.6363 39.6929 38.6458 39.4771 38.6631 39.2645C38.6631 39.2614 38.6631 39.2614 38.6631 39.2614C38.6819 39.1149 38.6992 38.97 38.715 38.8236C38.715 38.8047 38.715 38.7937 38.7213 38.7779C38.7731 38.2031 38.8062 37.6252 38.8062 37.0393C38.8062 32.4157 37.0089 28.222 34.0794 25.1039C33.8121 24.8204 33.5385 24.548 33.2539 24.2834C32.4456 23.3748 31.6453 22.474 30.837 21.5685C30.5949 21.2126 30.3669 20.8504 30.1514 20.4771C28.8699 18.3071 28.0538 15.8378 27.8258 13.2047V13.2016C27.777 12.6976 27.7566 12.1858 27.7566 11.6693C27.7566 10.9055 27.8053 10.1496 27.9028 9.41259C27.9516 9.05983 28.0098 8.70078 28.0758 8.35117C28.2912 7.22361 28.6167 6.12598 29.0413 5.08661C29.3353 4.35748 29.6781 3.66141 30.0728 2.98267C31.3622 1.17638 33.4756 0 35.8657 0C39.7968 0 42.9904 3.19527 42.9904 7.13543C42.9904 7.59369 42.9448 8.04408 42.8631 8.47558C42.8568 8.5118 42.8536 8.54172 42.8442 8.57322C42.7797 8.8929 42.7357 9.20786 42.6901 9.537C42.5926 10.2724 42.5439 11.0268 42.5439 11.7921C42.5439 16.3008 44.2594 20.411 47.0647 23.5086C47.2502 23.6913 47.4263 23.8803 47.6056 24.0708C47.615 24.0834 47.6292 24.0945 47.6417 24.1102C47.6417 24.1134 47.6417 24.1134 47.6417 24.1134C47.821 24.296 48.0128 24.4756 48.2 24.6488C48.2581 24.7071 48.3148 24.7638 48.3666 24.822C49.3384 25.8157 50.1797 26.926 50.8794 28.126C52.3984 30.7118 53.2664 33.7228 53.2664 36.9385Z" fill="white"/>
<path d="M34.9176 37.0441C34.9176 38.4929 34.7415 39.8961 34.4066 41.2425C34.3091 41.6362 34.199 42.0237 34.0763 42.4079C33.0542 45.0961 30.4566 47 27.4186 47C24.6542 47 22.261 45.4268 21.0801 43.126C20.4574 41.9103 20.2608 40.5213 20.3961 39.1622C20.4228 38.8914 20.4432 38.6174 20.4574 38.3418C20.4747 38.0331 20.4841 37.7197 20.4841 37.4063C20.4841 32.7748 18.6805 28.5717 15.7448 25.4536C15.2998 24.9764 14.828 24.5292 14.3327 24.1103C14.0277 23.8189 13.7242 23.5292 13.4191 23.2378C12.7272 22.4394 12.1045 21.578 11.5715 20.663C10.0289 18.063 9.14206 15.0284 9.14206 11.7922C9.14206 11.0284 9.19081 10.2741 9.2883 9.53549C9.33233 9.20951 9.38107 8.8914 9.4424 8.57329C9.45183 8.5418 9.45498 8.51187 9.45969 8.47565C9.68927 7.29613 10.0321 6.15754 10.4818 5.07566C10.4865 5.06621 10.4865 5.05833 10.4912 5.05361C10.7916 4.34337 11.1312 3.65833 11.518 3.00007C12.809 1.20794 14.9177 0.0410156 17.2936 0.0410156C21.231 0.0410156 24.4184 3.23314 24.4184 7.17172C24.4184 7.54337 24.3916 7.904 24.335 8.25833C24.335 8.27093 24.3303 8.28983 24.3256 8.30243C24.313 8.35912 24.3036 8.41739 24.291 8.47408C24.2863 8.50872 24.2816 8.54022 24.2737 8.57172C24.2643 8.62841 24.2517 8.68195 24.2423 8.74022C24.1935 9.00006 24.1542 9.2662 24.118 9.53549C24.0205 10.2725 23.9718 11.0284 23.9718 11.7922C23.9718 16.3008 25.6873 20.4111 28.491 23.5103C28.4926 23.5119 28.4926 23.5119 28.4942 23.5134C28.6766 23.6945 28.8527 23.8804 29.0335 24.0709C29.0429 24.0835 29.0555 24.0977 29.0681 24.1103C29.0681 24.115 29.0681 24.115 29.0681 24.115C29.2489 24.2961 29.4392 24.4772 29.6279 24.6489C29.6766 24.6882 29.7254 24.7323 29.7741 24.7764C30.2333 25.1922 30.9314 25.9229 31.3104 26.4126C31.7397 26.9717 32.1359 27.5575 32.4945 28.167C34.0355 30.7654 34.9176 33.7985 34.9176 37.0441Z" fill="white"/>
<path d="M15.0829 31.5196C15.0829 32.0487 15.0121 32.5653 14.8801 33.0566L14.6065 33.855L11.5685 42.6597L11.4002 43.1542C10.5322 45.3401 8.39843 46.8849 5.90768 46.8849C2.64485 46.8849 0 44.2361 0 40.9684C0 40.4346 0.0707602 39.918 0.202846 39.4235L0.4623 38.6692L0.467017 38.6566L3.51285 29.8251L3.6811 29.3401C4.54909 27.1543 6.67975 25.6094 9.17365 25.6094C12.4365 25.6078 15.0829 28.2535 15.0829 31.5196Z" fill="white"/>
</svg>
