<svg width="52" height="43" viewBox="0 0 52 43" fill="none" xmlns="http://www.w3.org/2000/svg">
<path d="M51.3524 33.4347C51.3524 34.6807 51.2002 35.8923 50.908 37.0524C50.91 37.0581 50.91 37.06 50.908 37.0658C50.8613 37.2413 50.8146 37.4149 50.7639 37.5905C50.4311 38.7372 49.8547 39.8248 48.9557 40.6643C47.3889 42.1259 45.0876 42.8796 42.6198 42.3892C39.5127 41.771 37.2722 39.115 37.2499 36.1232C37.2499 35.9247 37.258 35.7301 37.2763 35.5374C37.2763 35.5355 37.2763 35.5355 37.2763 35.5355C37.2945 35.4038 37.3108 35.2722 37.327 35.1386C37.327 35.1215 37.327 35.1119 37.3331 35.0967C37.3838 34.5758 37.4143 34.053 37.4143 33.5225C37.4143 29.3382 35.6811 25.5431 32.8582 22.7191C32.6005 22.4635 32.3366 22.2154 32.0627 21.9769C31.2834 21.1545 30.5122 20.3398 29.7329 19.5193C29.4995 19.1969 29.2783 18.8706 29.0713 18.531C27.8354 16.5657 27.05 14.3314 26.8288 11.9501V11.9482C26.7821 11.4922 26.7618 11.0285 26.7618 10.5611C26.7618 9.87034 26.8085 9.18535 26.9018 8.51944C26.9485 8.20079 27.0033 7.87643 27.0682 7.55969C27.2752 6.53888 27.5898 5.54479 27.9997 4.60412C28.2839 3.94394 28.6147 3.31428 28.9942 2.69989C30.2382 1.06469 32.2757 0 34.5792 0C38.3701 0 41.4488 2.8926 41.4488 6.45875C41.4488 6.8747 41.4041 7.28112 41.325 7.67227C41.3189 7.7047 41.3169 7.73332 41.3067 7.76004C41.2458 8.04815 41.2012 8.33436 41.1565 8.63201C41.0632 9.29792 41.0165 9.981 41.0165 10.6736C41.0165 14.7549 42.6705 18.4737 45.3737 21.2786C45.5523 21.4446 45.7228 21.6144 45.8953 21.788C45.9034 21.7995 45.9196 21.8109 45.9298 21.8243C45.9298 21.8262 45.9298 21.8262 45.9298 21.8262C46.1023 21.9922 46.287 22.1544 46.4676 22.3108C46.5224 22.3623 46.5792 22.4158 46.6279 22.4673C47.5635 23.3679 48.3752 24.3715 49.051 25.4591C50.5143 27.8003 51.3524 30.5231 51.3524 33.4347Z" fill="#1C273B"/>
<path d="M33.6609 33.5282C33.6609 34.839 33.4925 36.1097 33.1678 37.3271C33.1231 37.5064 33.0724 37.6801 33.0176 37.8594C33.0176 37.8594 33.0176 37.8594 33.0176 37.8632C32.9628 38.0388 32.908 38.2105 32.8491 38.3841C32.7253 38.6894 32.5792 38.9814 32.4108 39.2638C32.4067 39.2714 32.4027 39.2733 32.4006 39.2809C31.2175 41.231 28.9871 42.538 26.4321 42.538C23.7674 42.538 21.46 41.1165 20.3214 39.0329C19.7228 37.9319 19.532 36.6745 19.6599 35.4457C19.6883 35.1977 19.7065 34.9516 19.7228 34.7016C19.737 34.423 19.7491 34.1387 19.7491 33.8563C19.7491 29.6625 18.0079 25.8597 15.1789 23.0377C14.7527 22.6046 14.2961 22.2001 13.8171 21.8223C13.5208 21.5571 13.2286 21.2938 12.9363 21.0323C12.4472 20.5 11.9906 19.9409 11.5827 19.3533C11.4325 19.1396 11.2905 18.9201 11.1525 18.7007C9.66692 16.3462 8.81253 13.6005 8.81253 10.6716C8.81253 9.97902 8.85921 9.29594 8.95053 8.63003C8.99518 8.33428 9.04186 8.04617 9.10071 7.75805C9.10883 7.73134 9.11492 7.70272 9.11898 7.67219C9.33816 6.60559 9.67098 5.57143 10.1053 4.5926C10.1093 4.58497 10.1093 4.57543 10.1134 4.57161C10.4016 3.9305 10.7303 3.30848 11.1058 2.71508C12.3498 1.09133 14.3813 0.0380859 16.6725 0.0380859C20.4655 0.0380859 23.5401 2.92878 23.5401 6.49111C23.5401 6.82692 23.5137 7.1532 23.4589 7.47375C23.4589 7.48711 23.4549 7.50428 23.4508 7.51573C23.4366 7.56725 23.4285 7.61876 23.4143 7.6741C23.4102 7.70463 23.4062 7.73325 23.4001 7.75996C23.3899 7.81148 23.3778 7.85918 23.3676 7.9107C23.323 8.14729 23.2844 8.38771 23.2499 8.63194C23.1545 9.29785 23.1079 9.98093 23.1079 10.6736C23.1079 14.3942 24.4838 17.8173 26.7811 20.5172C27.0003 20.7786 27.2296 21.0323 27.4671 21.2785C27.4671 21.2785 27.4671 21.2785 27.4711 21.2823C27.6457 21.4445 27.8141 21.6124 27.9886 21.786C27.9968 21.7956 28.011 21.8108 28.0211 21.8204C28.0211 21.8242 28.0211 21.8242 28.0211 21.8242C28.1956 21.9883 28.3783 22.1543 28.5609 22.3088C28.6076 22.347 28.6563 22.3852 28.703 22.4252C29.1454 22.7992 29.8172 23.4613 30.1825 23.9078C30.5985 24.4115 30.978 24.94 31.325 25.4934C32.8106 27.8479 33.6609 30.5917 33.6609 33.5282Z" fill="#1C273B"/>
<path d="M14.5389 28.5314C14.5389 29.0084 14.4739 29.4797 14.3461 29.9223L14.0822 30.6474L11.1497 38.6135L10.9894 39.06C10.1675 41.0024 8.1705 42.3857 5.83056 42.4334C5.78591 42.4372 5.73924 42.4372 5.69459 42.4372C2.54694 42.4372 0 40.0407 0 37.0832C0 36.5986 0.0649412 36.133 0.192796 35.6866L0.444445 35.0035L0.448504 34.9901L3.38306 26.9992L3.54745 26.5604C3.84375 25.8601 4.28819 25.2324 4.85034 24.721C5.87521 23.767 7.28567 23.1831 8.84021 23.1831C11.9899 23.1812 14.5389 25.5739 14.5389 28.5314Z" fill="#1C273B"/>
</svg>
