<svg width="32" height="32" viewBox="0 0 32 32" fill="none" xmlns="http://www.w3.org/2000/svg">
<path d="M25.3337 12.0001C25.3337 13.9334 24.7603 15.7068 23.7737 17.1868C22.3337 19.3201 20.0537 20.8268 17.4003 21.2134C16.947 21.2934 16.4803 21.3334 16.0003 21.3334C15.5203 21.3334 15.0537 21.2934 14.6003 21.2134C11.947 20.8268 9.66699 19.3201 8.22699 17.1868C7.24033 15.7068 6.66699 13.9334 6.66699 12.0001C6.66699 6.84008 10.8403 2.66675 16.0003 2.66675C21.1603 2.66675 25.3337 6.84008 25.3337 12.0001Z" stroke="#FF7272" stroke-width="1.5" stroke-linecap="round" stroke-linejoin="round"/>
<path d="M28.3338 24.6266L26.1338 25.1466C25.6404 25.2666 25.2538 25.64 25.1471 26.1333L24.6804 28.0933C24.4271 29.16 23.0671 29.48 22.3604 28.64L16.0004 21.3333L9.64043 28.6533C8.93376 29.4933 7.57376 29.1733 7.32043 28.1066L6.85376 26.1466C6.73376 25.6533 6.3471 25.2666 5.8671 25.16L3.6671 24.64C2.65376 24.4 2.29376 23.1333 3.0271 22.3999L8.2271 17.2C9.6671 19.3333 11.9471 20.84 14.6004 21.2266C15.0538 21.3066 15.5204 21.3466 16.0004 21.3466C16.4804 21.3466 16.9471 21.3066 17.4004 21.2266C20.0538 20.84 22.3338 19.3333 23.7738 17.2L28.9738 22.3999C29.7071 23.1199 29.3471 24.3866 28.3338 24.6266Z" stroke="#FF7272" stroke-width="1.5" stroke-linecap="round" stroke-linejoin="round"/>
<path d="M16.7736 7.97325L17.5603 9.54658C17.667 9.75991 17.947 9.97325 18.2003 10.0132L19.627 10.2532C20.5336 10.3999 20.747 11.0666 20.0936 11.7199L18.987 12.8266C18.8003 13.0132 18.6936 13.3733 18.7603 13.6399L19.0803 15.0132C19.3336 16.0932 18.7603 16.5199 17.8003 15.9466L16.467 15.1599C16.227 15.0132 15.827 15.0132 15.587 15.1599L14.2536 15.9466C13.2936 16.5066 12.7203 16.0932 12.9736 15.0132L13.2936 13.6399C13.347 13.3866 13.2536 13.0132 13.067 12.8266L11.9603 11.7199C11.307 11.0666 11.5203 10.4132 12.427 10.2532L13.8536 10.0132C14.0936 9.97325 14.3736 9.75991 14.4803 9.54658L15.267 7.97325C15.6536 7.11992 16.347 7.11992 16.7736 7.97325Z" stroke="#FF7272" stroke-width="1.5" stroke-linecap="round" stroke-linejoin="round"/>
</svg>
