<svg width="48" height="48" viewBox="0 0 48 48" fill="none" xmlns="http://www.w3.org/2000/svg">
<g clip-path="url(#clip0_1_57)">
<path d="M31.376 24.4161L20.777 31.4821C20.7017 31.5322 20.6142 31.5609 20.5239 31.5652C20.4336 31.5696 20.3437 31.5493 20.264 31.5066C20.1843 31.4639 20.1176 31.4004 20.0711 31.3228C20.0246 31.2452 20 31.1565 20 31.0661V16.9341C20 16.8436 20.0246 16.7549 20.0711 16.6773C20.1176 16.5997 20.1843 16.5362 20.264 16.4935C20.3437 16.4508 20.4336 16.4306 20.5239 16.4349C20.6142 16.4392 20.7017 16.468 20.777 16.5181L31.376 23.5841C31.4445 23.6297 31.5006 23.6916 31.5395 23.7642C31.5783 23.8367 31.5986 23.9178 31.5986 24.0001C31.5986 24.0824 31.5783 24.1634 31.5395 24.236C31.5006 24.3085 31.4445 24.3704 31.376 24.4161Z" fill="white"/>
</g>
<rect x="0.75" y="0.75" width="46.5" height="46.5" rx="23.25" stroke="#DDE4EE" stroke-width="1.5"/>
<defs>
<clipPath id="clip0_1_57">
<rect width="24" height="24" fill="white" transform="translate(12 12)"/>
</clipPath>
</defs>
</svg>
