<svg width="48" height="48" viewBox="0 0 48 48" fill="none" xmlns="http://www.w3.org/2000/svg">
<g clip-path="url(#clip0_1_135)">
<path d="M30.398 19.8901C29.5306 19.0683 28.9726 17.9729 28.818 16.7881L28.012 10.6221L22.552 13.5941C21.5022 14.1661 20.2873 14.3589 19.112 14.1401L13 13.0001L14.14 19.1121C14.3589 20.2874 14.166 21.5023 13.594 22.5521L10.622 28.0121L16.788 28.8181C17.9721 28.9731 19.0667 29.531 19.888 30.3981L24.164 34.9121L26.836 29.2981C27.3489 28.2192 28.2175 27.3498 29.296 26.8361L34.912 24.1641L30.398 19.8901ZM30.448 31.0161L26.022 40.3161C25.9383 40.4919 25.813 40.6447 25.657 40.7613C25.501 40.8779 25.3189 40.9548 25.1266 40.9853C24.9342 41.0158 24.7373 40.9991 24.5529 40.9365C24.3685 40.8739 24.202 40.7674 24.068 40.6261L16.984 33.1481C16.7947 32.9485 16.5427 32.82 16.27 32.7841L6.05599 31.4481C5.86302 31.4226 5.67912 31.3506 5.52017 31.2383C5.36121 31.126 5.23197 30.9767 5.14359 30.8032C5.0552 30.6298 5.01033 30.4375 5.01284 30.2429C5.01535 30.0482 5.06517 29.8571 5.15799 29.6861L10.082 20.6381C10.2129 20.3961 10.2567 20.1165 10.206 19.8461L8.31999 9.72006C8.28418 9.52839 8.29561 9.33089 8.35329 9.14463C8.41097 8.95838 8.51318 8.78899 8.65105 8.65111C8.78892 8.51324 8.95831 8.41104 9.14457 8.35336C9.33082 8.29567 9.52833 8.28424 9.71999 8.32006L19.846 10.2061C20.1164 10.2567 20.396 10.213 20.638 10.0821L29.686 5.15806C29.8572 5.06521 30.0485 5.01543 30.2432 5.01303C30.438 5.01063 30.6304 5.05567 30.8039 5.14428C30.9773 5.23288 31.1266 5.36237 31.2389 5.52158C31.3511 5.68078 31.4229 5.86491 31.448 6.05806L32.784 16.2701C32.8199 16.5427 32.9484 16.7948 33.148 16.9841L40.626 24.0681C40.7673 24.2021 40.8738 24.3685 40.9364 24.553C40.999 24.7374 41.0158 24.9343 40.9853 25.1266C40.9547 25.319 40.8779 25.501 40.7613 25.657C40.6447 25.813 40.4918 25.9383 40.316 26.0221L31.016 30.4481C30.767 30.5665 30.5665 30.7671 30.448 31.0161ZM32.042 34.8701L34.87 32.0421L43.356 40.5261L40.526 43.3561L32.042 34.8701Z" fill="#FF7272"/>
</g>
<defs>
<clipPath id="clip0_1_135">
<rect width="48" height="48" fill="white"/>
</clipPath>
</defs>
</svg>
